<?xml version="1.0" encoding="UTF-8" standalone="no"?>
<svg width="383.963mm" height="383.963mm"
 viewBox="0 0 4535 4535"
 xmlns="http://www.w3.org/2000/svg" xmlns:xlink="http://www.w3.org/1999/xlink"  version="1.2" baseProfile="tiny">
<defs>
</defs>
<g fill="none" stroke="black" stroke-width="1" fill-rule="evenodd" stroke-linecap="square" stroke-linejoin="bevel" >

<g fill="#ffffff" fill-opacity="1" stroke="none" transform="matrix(1,0,0,1,0,0)"
font-family="Arial" font-size="12" font-weight="400" font-style="normal" 
>
<rect x="0" y="0" width="4535" height="4535"/>
</g>

<g fill="none" stroke="#000000" stroke-opacity="1" stroke-width="1" stroke-linecap="square" stroke-linejoin="bevel" transform="matrix(1,0,0,1,0,0)"
font-family="Arial" font-size="12" font-weight="400" font-style="normal" 
>
</g>

<g fill="#000000" fill-opacity="1" stroke="#000000" stroke-opacity="1" stroke-width="1" stroke-linecap="butt" stroke-linejoin="miter" stroke-miterlimit="2" transform="matrix(1,0,0,1,0,0)"
font-family="Arial" font-size="12" font-weight="400" font-style="normal" 
>
</g>

<g fill="#000000" fill-opacity="1" stroke="#000000" stroke-opacity="1" stroke-width="5" stroke-linecap="round" stroke-linejoin="bevel" transform="matrix(1,0,0,1,0,0)"
font-family="Arial" font-size="12" font-weight="400" font-style="normal" 
>
<polyline fill="none" vector-effect="none" points="4135.81,2361.67 4135.81,2338.05 " />
<polyline fill="none" vector-effect="none" points="4017.71,2361.67 3899.61,2361.67 " />
<polyline fill="none" vector-effect="none" points="3899.61,2361.67 3899.61,2338.05 " />
<polyline fill="none" vector-effect="none" points="3899.61,2338.05 3781.51,2338.05 " />
<polyline fill="none" vector-effect="none" points="3781.51,1905.81 3804.32,1905.81 " />
<polyline fill="none" vector-effect="none" points="3804.32,1905.81 3804.32,1473.57 " />
<polyline fill="none" vector-effect="none" points="3781.51,1473.57 3804.32,1473.57 " />
<polyline fill="none" vector-effect="none" points="3781.51,1473.57 3781.51,1041.33 " />
<polyline fill="none" vector-effect="none" points="3781.51,1041.33 3804.32,1041.33 " />
<polyline fill="none" vector-effect="none" points="3804.32,1041.33 3804.32,609.084 " />
<polyline fill="none" vector-effect="none" points="3781.51,609.084 3804.32,609.084 " />
<polyline fill="none" vector-effect="none" points="3781.51,609.084 3781.51,200.462 " />
<polyline fill="none" vector-effect="none" points="3899.61,176.842 3899.61,200.462 " />
<polyline fill="none" vector-effect="none" points="4017.71,176.842 3899.61,176.842 " />
<polyline fill="none" vector-effect="none" points="4135.81,176.842 4135.81,200.462 " />
<polyline fill="none" vector-effect="none" points="4253.91,176.842 4135.81,176.842 " />
<polyline fill="none" vector-effect="none" points="4253.91,176.842 4253.91,200.462 " />
<polyline fill="none" vector-effect="none" points="4372,2338.05 4253.91,2338.05 " />
<polyline fill="none" vector-effect="none" points="4253.91,2361.67 4253.91,2338.05 " />
<polyline fill="none" vector-effect="none" points="4253.91,2361.67 4135.81,2361.67 " />
<polyline fill="none" vector-effect="none" points="4017.71,176.842 4017.71,200.462 " />
<polyline fill="none" vector-effect="none" points="4017.71,200.462 4135.81,200.462 " />
<polyline fill="none" vector-effect="none" points="4135.81,2338.05 4017.71,2338.05 " />
<polyline fill="none" vector-effect="none" points="4017.71,2361.67 4017.71,2338.05 " />
<polyline fill="none" vector-effect="none" points="4253.91,200.462 4372,200.462 " />
<polyline fill="none" vector-effect="none" points="3781.51,200.462 3899.61,200.462 " />
<polyline fill="none" vector-effect="none" points="4372,2338.05 4372,200.462 " />
<polyline fill="none" vector-effect="none" points="3781.51,2338.05 3781.51,1905.81 " />
<polyline fill="none" vector-effect="none" points="2535.52,1825.31 2535.52,1742.64 " />
<polyline fill="none" vector-effect="none" points="2511.9,1742.64 2535.52,1742.64 " />
<polyline fill="none" vector-effect="none" points="2605.02,1403.71 2675.32,1141.34 " />
<polyline fill="none" vector-effect="none" points="2652.51,1135.23 2675.32,1141.34 " />
<polyline fill="none" vector-effect="none" points="2745.62,878.976 2815.93,616.608 " />
<polyline fill="none" vector-effect="none" points="2981.51,348.126 2981.51,371.745 " />
<polyline fill="none" vector-effect="none" points="2981.51,371.745 3099.61,371.745 " />
<polyline fill="none" vector-effect="none" points="3099.61,348.126 3099.61,371.745 " />
<polyline fill="none" vector-effect="none" points="3335.81,348.126 3335.81,371.745 " />
<polyline fill="none" vector-effect="none" points="3453.91,348.126 3335.81,348.126 " />
<polyline fill="none" vector-effect="none" points="3453.91,2073.32 3453.91,348.126 " />
<polyline fill="none" vector-effect="none" points="3265.51,2073.32 3265.51,2049.7 " />
<polyline fill="none" vector-effect="none" points="3265.51,2049.7 3077.11,2049.7 " />
<polyline fill="none" vector-effect="none" points="3077.11,2073.32 3077.11,2049.7 " />
<polyline fill="none" vector-effect="none" points="3077.11,2073.32 2888.71,2073.32 " />
<polyline fill="none" vector-effect="none" points="2888.71,2049.7 2700.31,2049.7 " />
<polyline fill="none" vector-effect="none" points="2700.31,2073.32 2700.31,2049.7 " />
<polyline fill="none" vector-effect="none" points="2700.31,2073.32 2511.9,2073.32 " />
<polyline fill="none" vector-effect="none" points="2722.81,872.863 2745.62,878.976 " />
<polyline fill="none" vector-effect="none" points="2888.71,2073.32 2888.71,2049.7 " />
<polyline fill="none" vector-effect="none" points="3453.91,2073.32 3265.51,2073.32 " />
<polyline fill="none" vector-effect="none" points="2981.51,348.126 2863.41,348.126 " />
<polyline fill="none" vector-effect="none" points="3217.71,371.745 3335.81,371.745 " />
<polyline fill="none" vector-effect="none" points="3217.71,348.126 3217.71,371.745 " />
<polyline fill="none" vector-effect="none" points="2722.81,872.863 2652.51,1135.23 " />
<polyline fill="none" vector-effect="none" points="3217.71,348.126 3099.61,348.126 " />
<polyline fill="none" vector-effect="none" points="2511.9,1990.65 2535.52,1990.65 " />
<polyline fill="none" vector-effect="none" points="2511.9,1907.98 2511.9,1825.31 " />
<polyline fill="none" vector-effect="none" points="2511.9,1742.64 2511.9,1659.97 " />
<polyline fill="none" vector-effect="none" points="2793.11,610.494 2815.93,616.608 " />
<polyline fill="none" vector-effect="none" points="2582.21,1397.6 2605.02,1403.71 " />
<polyline fill="none" vector-effect="none" points="2582.21,1397.6 2511.9,1659.97 " />
<polyline fill="none" vector-effect="none" points="2863.41,348.126 2793.11,610.494 " />
<polyline fill="none" vector-effect="none" points="2511.9,1825.31 2535.52,1825.31 " />
<polyline fill="none" vector-effect="none" points="2535.52,1990.65 2535.52,1907.98 " />
<polyline fill="none" vector-effect="none" points="2511.9,1907.98 2535.52,1907.98 " />
<polyline fill="none" vector-effect="none" points="2511.9,2073.32 2511.9,1990.65 " />
<polyline fill="none" vector-effect="none" points="1017.99,779.164 1017.99,785.277 " />
<polyline fill="none" vector-effect="none" points="1017.99,785.277 1445.51,785.277 " />
<polyline fill="none" vector-effect="none" points="1445.51,779.164 1445.51,785.277 " />
<polyline fill="none" vector-effect="none" points="1445.51,779.164 1873.03,779.164 " />
<polyline fill="none" vector-effect="none" points="1873.03,779.164 1873.03,785.277 " />
<polyline fill="none" vector-effect="none" points="1873.03,785.277 2300.55,785.277 " />
<polyline fill="none" vector-effect="none" points="2300.55,785.277 2300.55,1046.23 " />
<polyline fill="none" vector-effect="none" points="2324.17,1046.23 2300.55,1046.23 " />
<polyline fill="none" vector-effect="none" points="2324.17,1313.29 2324.17,1046.23 " />
<polyline fill="none" vector-effect="none" points="2324.17,1313.29 2300.55,1313.29 " />
<polyline fill="none" vector-effect="none" points="2300.55,1313.29 2300.55,1580.35 " />
<polyline fill="none" vector-effect="none" points="2324.17,1580.35 2300.55,1580.35 " />
<polyline fill="none" vector-effect="none" points="2324.17,1847.41 2324.17,1580.35 " />
<polyline fill="none" vector-effect="none" points="2324.17,1847.41 2300.55,1847.41 " />
<polyline fill="none" vector-effect="none" points="2300.55,1847.41 2300.55,2114.47 " />
<polyline fill="none" vector-effect="none" points="2300.55,2114.47 1891.93,2114.47 " />
<polyline fill="none" vector-effect="none" points="1891.93,2137.28 1891.93,2114.47 " />
<polyline fill="none" vector-effect="none" points="1459.68,2137.28 1891.93,2137.28 " />
<polyline fill="none" vector-effect="none" points="1459.68,2137.28 1459.68,2114.47 " />
<polyline fill="none" vector-effect="none" points="1459.68,2114.47 1027.44,2114.47 " />
<polyline fill="none" vector-effect="none" points="1027.44,2137.28 1027.44,2114.47 " />
<polyline fill="none" vector-effect="none" points="595.199,2137.28 1027.44,2137.28 " />
<polyline fill="none" vector-effect="none" points="595.199,2137.28 595.199,2114.47 " />
<polyline fill="none" vector-effect="none" points="595.199,2114.47 162.957,2114.47 " />
<polyline fill="none" vector-effect="none" points="162.957,2114.47 162.957,1865.66 " />
<polyline fill="none" vector-effect="none" points="139.337,1865.66 162.957,1865.66 " />
<polyline fill="none" vector-effect="none" points="139.337,1865.66 139.337,1594.04 " />
<polyline fill="none" vector-effect="none" points="139.337,1594.04 162.957,1594.04 " />
<polyline fill="none" vector-effect="none" points="162.957,1594.04 162.957,1322.41 " />
<polyline fill="none" vector-effect="none" points="139.337,1322.41 162.957,1322.41 " />
<polyline fill="none" vector-effect="none" points="139.337,1322.41 139.337,1050.79 " />
<polyline fill="none" vector-effect="none" points="139.337,1050.79 162.957,1050.79 " />
<polyline fill="none" vector-effect="none" points="162.957,1050.79 162.957,785.277 " />
<polyline fill="none" vector-effect="none" points="162.957,785.277 590.475,785.277 " />
<polyline fill="none" vector-effect="none" points="590.475,779.164 590.475,785.277 " />
<polyline fill="none" vector-effect="none" points="590.475,779.164 1017.99,779.164 " />
<polyline fill="none" vector-effect="none" points="1928.54,1930.63 1928.54,985.837 " />
<polyline fill="none" vector-effect="none" points="1208.13,985.837 1928.54,985.837 " />
<polyline fill="none" vector-effect="none" points="1208.13,985.837 1208.13,1930.63 " />
<polyline fill="none" vector-effect="none" points="1208.13,1930.63 1928.54,1930.63 " />
<polyline fill="none" vector-effect="none" points="1030.98,985.837 1030.98,1706.24 " />
<polyline fill="none" vector-effect="none" points="534.969,985.837 1030.98,985.837 " />
<polyline fill="none" vector-effect="none" points="534.969,1706.24 534.969,985.837 " />
<polyline fill="none" vector-effect="none" points="534.969,1706.24 1030.98,1706.24 " />
<polyline fill="none" vector-effect="none" points="1975.78,926.788 1975.94,924.844 1976.42,922.953 1977.2,921.167 1978.27,919.534 1979.59,918.099 1981.13,916.901 1982.84,915.973 1984.69,915.339 1986.61,915.018 1988.56,915.018 1990.49,915.339 1992.33,915.973 1994.05,916.901 1995.58,918.099 1996.91,919.534 1997.97,921.167 1998.76,922.953 1999.23,924.844 1999.4,926.788 1999.23,928.732 1998.76,930.622 1997.97,932.409 1996.91,934.042 1995.58,935.477 1994.05,936.675 1992.33,937.603 1990.49,938.236 1988.56,938.557 1986.61,938.557 1984.69,938.236 1982.84,937.603 1981.13,936.675 1979.59,935.477 1978.27,934.042 1977.2,932.409 1976.42,930.622 1975.94,928.732 1975.78,926.788 " />
<polyline fill="none" vector-effect="none" points="1107.75,926.788 1107.91,924.844 1108.39,922.953 1109.17,921.167 1110.24,919.534 1111.56,918.099 1113.1,916.901 1114.81,915.973 1116.66,915.339 1118.58,915.018 1120.53,915.018 1122.46,915.339 1124.3,915.973 1126.02,916.901 1127.56,918.099 1128.88,919.534 1129.95,921.167 1130.73,922.953 1131.21,924.844 1131.37,926.788 1131.21,928.732 1130.73,930.622 1129.95,932.409 1128.88,934.042 1127.56,935.477 1126.02,936.675 1124.3,937.603 1122.46,938.236 1120.53,938.557 1118.58,938.557 1116.66,938.236 1114.81,937.603 1113.1,936.675 1111.56,935.477 1110.24,934.042 1109.17,932.409 1108.39,930.622 1107.91,928.732 1107.75,926.788 " />
<polyline fill="none" vector-effect="none" points="464.109,926.788 464.271,924.844 464.749,922.953 465.533,921.167 466.6,919.534 467.921,918.099 469.46,916.901 471.175,915.973 473.02,915.339 474.944,915.018 476.895,915.018 478.819,915.339 480.663,915.973 482.379,916.901 483.918,918.099 485.239,919.534 486.306,921.167 487.089,922.953 487.568,924.844 487.729,926.788 487.568,928.732 487.089,930.622 486.306,932.409 485.239,934.042 483.918,935.477 482.379,936.675 480.663,937.603 478.819,938.236 476.895,938.557 474.944,938.557 473.02,938.236 471.175,937.603 469.46,936.675 467.921,935.477 466.6,934.042 465.533,932.409 464.749,930.622 464.271,928.732 464.109,926.788 " />
<polyline fill="none" vector-effect="none" points="464.109,1989.68 464.271,1987.73 464.749,1985.84 465.533,1984.06 466.6,1982.42 467.921,1980.99 469.46,1979.79 471.175,1978.86 473.02,1978.23 474.944,1977.91 476.895,1977.91 478.819,1978.23 480.663,1978.86 482.379,1979.79 483.918,1980.99 485.239,1982.42 486.306,1984.06 487.089,1985.84 487.568,1987.73 487.729,1989.68 487.568,1991.62 487.089,1993.51 486.306,1995.3 485.239,1996.93 483.918,1998.37 482.379,1999.57 480.663,2000.49 478.819,2001.13 476.895,2001.45 474.944,2001.45 473.02,2001.13 471.175,2000.49 469.46,1999.57 467.921,1998.37 466.6,1996.93 465.533,1995.3 464.749,1993.51 464.271,1991.62 464.109,1989.68 " />
<polyline fill="none" vector-effect="none" points="1107.75,1989.68 1107.91,1987.73 1108.39,1985.84 1109.17,1984.06 1110.24,1982.42 1111.56,1980.99 1113.1,1979.79 1114.81,1978.86 1116.66,1978.23 1118.58,1977.91 1120.53,1977.91 1122.46,1978.23 1124.3,1978.86 1126.02,1979.79 1127.56,1980.99 1128.88,1982.42 1129.95,1984.06 1130.73,1985.84 1131.21,1987.73 1131.37,1989.68 1131.21,1991.62 1130.73,1993.51 1129.95,1995.3 1128.88,1996.93 1127.56,1998.37 1126.02,1999.57 1124.3,2000.49 1122.46,2001.13 1120.53,2001.45 1118.58,2001.45 1116.66,2001.13 1114.81,2000.49 1113.1,1999.57 1111.56,1998.37 1110.24,1996.93 1109.17,1995.3 1108.39,1993.51 1107.91,1991.62 1107.75,1989.68 " />
<polyline fill="none" vector-effect="none" points="1975.78,1989.68 1975.94,1987.73 1976.42,1985.84 1977.2,1984.06 1978.27,1982.42 1979.59,1980.99 1981.13,1979.79 1982.84,1978.86 1984.69,1978.23 1986.61,1977.91 1988.56,1977.91 1990.49,1978.23 1992.33,1978.86 1994.05,1979.79 1995.58,1980.99 1996.91,1982.42 1997.97,1984.06 1998.76,1985.84 1999.23,1987.73 1999.4,1989.68 1999.23,1991.62 1998.76,1993.51 1997.97,1995.3 1996.91,1996.93 1995.58,1998.37 1994.05,1999.57 1992.33,2000.49 1990.49,2001.13 1988.56,2001.45 1986.61,2001.45 1984.69,2001.13 1982.84,2000.49 1981.13,1999.57 1979.59,1998.37 1978.27,1996.93 1977.2,1995.3 1976.42,1993.51 1975.94,1991.62 1975.78,1989.68 " />
<polyline fill="none" vector-effect="none" points="1959.01,2767.67 1959.01,2579.27 " />
<polyline fill="none" vector-effect="none" points="1935.39,2579.27 1959.01,2579.27 " />
<polyline fill="none" vector-effect="none" points="1935.39,2390.87 3660.58,2390.87 " />
<polyline fill="none" vector-effect="none" points="2266.06,3332.87 2266.06,3309.25 " />
<polyline fill="none" vector-effect="none" points="2183.39,3332.87 2183.39,3309.25 " />
<polyline fill="none" vector-effect="none" points="3122.62,3125.51 2864.65,3194.63 " />
<polyline fill="none" vector-effect="none" points="2606.69,3263.75 2348.73,3332.87 " />
<polyline fill="none" vector-effect="none" points="3660.58,2627.06 3660.58,2745.16 " />
<polyline fill="none" vector-effect="none" points="2864.65,3194.63 2858.54,3171.81 " />
<polyline fill="none" vector-effect="none" points="1935.39,2767.67 1935.39,2956.07 " />
<polyline fill="none" vector-effect="none" points="1935.39,2390.87 1935.39,2579.27 " />
<polyline fill="none" vector-effect="none" points="2100.72,3332.87 2183.39,3332.87 " />
<polyline fill="none" vector-effect="none" points="1935.39,3332.87 2018.06,3332.87 " />
<polyline fill="none" vector-effect="none" points="1935.39,2767.67 1959.01,2767.67 " />
<polyline fill="none" vector-effect="none" points="1959.01,3144.47 1959.01,2956.07 " />
<polyline fill="none" vector-effect="none" points="3660.58,2863.26 3660.58,2981.36 " />
<polyline fill="none" vector-effect="none" points="1935.39,3144.47 1959.01,3144.47 " />
<polyline fill="none" vector-effect="none" points="3636.96,2745.16 3636.96,2863.26 " />
<polyline fill="none" vector-effect="none" points="3660.58,2863.26 3636.96,2863.26 " />
<polyline fill="none" vector-effect="none" points="3660.58,2745.16 3636.96,2745.16 " />
<polyline fill="none" vector-effect="none" points="3636.96,2508.97 3636.96,2627.06 " />
<polyline fill="none" vector-effect="none" points="3660.58,2627.06 3636.96,2627.06 " />
<polyline fill="none" vector-effect="none" points="3660.58,2508.97 3636.96,2508.97 " />
<polyline fill="none" vector-effect="none" points="2858.54,3171.81 2600.58,3240.94 " />
<polyline fill="none" vector-effect="none" points="2606.69,3263.75 2600.58,3240.94 " />
<polyline fill="none" vector-effect="none" points="2266.06,3309.25 2183.39,3309.25 " />
<polyline fill="none" vector-effect="none" points="3374.46,3033.57 3116.5,3102.69 " />
<polyline fill="none" vector-effect="none" points="3122.62,3125.51 3116.5,3102.69 " />
<polyline fill="none" vector-effect="none" points="3380.58,3056.39 3374.46,3033.57 " />
<polyline fill="none" vector-effect="none" points="2100.72,3309.25 2018.06,3309.25 " />
<polyline fill="none" vector-effect="none" points="1935.39,2956.07 1959.01,2956.07 " />
<polyline fill="none" vector-effect="none" points="3660.58,2390.87 3660.58,2508.97 " />
<polyline fill="none" vector-effect="none" points="3660.58,2981.36 3380.58,3056.39 " />
<polyline fill="none" vector-effect="none" points="1935.39,3144.47 1935.39,3332.87 " />
<polyline fill="none" vector-effect="none" points="2266.06,3332.87 2348.73,3332.87 " />
<polyline fill="none" vector-effect="none" points="2100.72,3332.87 2100.72,3309.25 " />
<polyline fill="none" vector-effect="none" points="2018.06,3332.87 2018.06,3309.25 " />
<polyline fill="none" vector-effect="none" points="4096.6,3450.97 3669.08,3450.97 " />
<polyline fill="none" vector-effect="none" points="4096.6,3639.37 4120.22,3639.37 " />
<polyline fill="none" vector-effect="none" points="4096.6,4016.17 4096.6,3827.77 " />
<polyline fill="none" vector-effect="none" points="4096.6,4016.17 4120.22,4016.17 " />
<polyline fill="none" vector-effect="none" points="4096.6,4204.57 4120.22,4204.57 " />
<polyline fill="none" vector-effect="none" points="4096.6,4392.97 4096.6,4204.57 " />
<polyline fill="none" vector-effect="none" points="4096.6,4392.97 1959.01,4392.97 " />
<polyline fill="none" vector-effect="none" points="1959.01,4204.57 1959.01,4392.97 " />
<polyline fill="none" vector-effect="none" points="1959.01,4204.57 1935.39,4204.57 " />
<polyline fill="none" vector-effect="none" points="1935.39,4204.57 1935.39,4016.17 " />
<polyline fill="none" vector-effect="none" points="1959.01,4016.17 1935.39,4016.17 " />
<polyline fill="none" vector-effect="none" points="1959.01,3827.77 1935.39,3827.77 " />
<polyline fill="none" vector-effect="none" points="1935.39,3827.77 1935.39,3639.37 " />
<polyline fill="none" vector-effect="none" points="1959.01,3639.37 1935.39,3639.37 " />
<polyline fill="none" vector-effect="none" points="1959.01,3450.97 1959.01,3639.37 " />
<polyline fill="none" vector-effect="none" points="2386.52,3450.97 1959.01,3450.97 " />
<polyline fill="none" vector-effect="none" points="2386.52,3474.59 2814.04,3474.59 " />
<polyline fill="none" vector-effect="none" points="2814.04,3450.97 2814.04,3474.59 " />
<polyline fill="none" vector-effect="none" points="3241.56,3450.97 2814.04,3450.97 " />
<polyline fill="none" vector-effect="none" points="3241.56,3450.97 3241.56,3474.59 " />
<polyline fill="none" vector-effect="none" points="4096.6,3639.37 4096.6,3450.97 " />
<polyline fill="none" vector-effect="none" points="3669.08,3450.97 3669.08,3474.59 " />
<polyline fill="none" vector-effect="none" points="3241.56,3474.59 3669.08,3474.59 " />
<polyline fill="none" vector-effect="none" points="4096.6,3827.77 4120.22,3827.77 " />
<polyline fill="none" vector-effect="none" points="1959.01,3827.77 1959.01,4016.17 " />
<polyline fill="none" vector-effect="none" points="2386.52,3450.97 2386.52,3474.59 " />
<polyline fill="none" vector-effect="none" points="4120.22,4204.57 4120.22,4016.17 " />
<polyline fill="none" vector-effect="none" points="4120.22,3827.77 4120.22,3639.37 " />
<polyline fill="none" vector-effect="none" points="139.337,4392.97 139.337,2255.38 " />
<polyline fill="none" vector-effect="none" points="1817.29,2255.38 139.337,2255.38 " />
<polyline fill="none" vector-effect="none" points="1817.29,4392.97 1817.29,2255.38 " />
<polyline fill="none" vector-effect="none" points="1817.29,4392.97 139.337,4392.97 " />
<polyline fill="none" vector-effect="none" points="1017.99,247.719 1017.99,271.339 " />
<polyline fill="none" vector-effect="none" points="1017.99,271.339 1445.51,271.339 " />
<polyline fill="none" vector-effect="none" points="1445.51,247.719 1445.51,271.339 " />
<polyline fill="none" vector-effect="none" points="1873.03,247.719 1873.03,271.339 " />
<polyline fill="none" vector-effect="none" points="1873.03,271.339 2300.55,271.339 " />
<polyline fill="none" vector-effect="none" points="2324.17,330.388 2300.55,330.388 " />
<polyline fill="none" vector-effect="none" points="2300.55,413.057 2300.55,495.727 " />
<polyline fill="none" vector-effect="none" points="2324.17,495.727 2300.55,495.727 " />
<polyline fill="none" vector-effect="none" points="2324.17,578.396 2300.55,578.396 " />
<polyline fill="none" vector-effect="none" points="2300.55,578.396 2300.55,661.065 " />
<polyline fill="none" vector-effect="none" points="1873.03,661.065 1873.03,654.952 " />
<polyline fill="none" vector-effect="none" points="1873.03,654.952 1445.51,654.952 " />
<polyline fill="none" vector-effect="none" points="1445.51,661.065 1445.51,654.952 " />
<polyline fill="none" vector-effect="none" points="1017.99,661.065 1445.51,661.065 " />
<polyline fill="none" vector-effect="none" points="1017.99,661.065 1017.99,654.952 " />
<polyline fill="none" vector-effect="none" points="1017.99,654.952 590.475,654.952 " />
<polyline fill="none" vector-effect="none" points="590.475,661.065 590.475,654.952 " />
<polyline fill="none" vector-effect="none" points="162.957,661.065 162.957,578.396 " />
<polyline fill="none" vector-effect="none" points="139.337,578.396 162.957,578.396 " />
<polyline fill="none" vector-effect="none" points="139.337,495.727 139.337,578.396 " />
<polyline fill="none" vector-effect="none" points="139.337,495.727 162.957,495.727 " />
<polyline fill="none" vector-effect="none" points="139.337,413.057 162.957,413.057 " />
<polyline fill="none" vector-effect="none" points="139.337,330.388 162.957,330.388 " />
<polyline fill="none" vector-effect="none" points="162.957,330.388 162.957,271.339 " />
<polyline fill="none" vector-effect="none" points="162.957,271.339 590.475,271.339 " />
<polyline fill="none" vector-effect="none" points="590.475,247.719 590.475,271.339 " />
<polyline fill="none" vector-effect="none" points="1881.3,454.392 1881.46,452.448 1881.94,450.557 1882.72,448.771 1883.79,447.138 1885.11,445.703 1886.65,444.505 1888.36,443.577 1890.21,442.943 1892.13,442.622 1894.08,442.622 1896.01,442.943 1897.85,443.577 1899.57,444.505 1901.11,445.703 1902.43,447.138 1903.49,448.771 1904.28,450.557 1904.76,452.448 1904.92,454.392 1904.76,456.336 1904.28,458.227 1903.49,460.013 1902.43,461.646 1901.11,463.081 1899.57,464.279 1897.85,465.207 1896.01,465.84 1894.08,466.162 1892.13,466.162 1890.21,465.84 1888.36,465.207 1886.65,464.279 1885.11,463.081 1883.79,461.646 1882.72,460.013 1881.94,458.227 1881.46,456.336 1881.3,454.392 " />
<polyline fill="none" vector-effect="none" points="2300.55,271.339 2300.55,330.388 " />
<polyline fill="none" vector-effect="none" points="1445.51,247.719 1873.03,247.719 " />
<polyline fill="none" vector-effect="none" points="590.475,247.719 1017.99,247.719 " />
<polyline fill="none" vector-effect="none" points="1798.63,454.392 1798.79,452.448 1799.27,450.557 1800.05,448.771 1801.12,447.138 1802.44,445.703 1803.98,444.505 1805.69,443.577 1807.54,442.943 1809.46,442.622 1811.41,442.622 1813.34,442.943 1815.18,443.577 1816.9,444.505 1818.44,445.703 1819.76,447.138 1820.82,448.771 1821.61,450.557 1822.09,452.448 1822.25,454.392 1822.09,456.336 1821.61,458.227 1820.82,460.013 1819.76,461.646 1818.44,463.081 1816.9,464.279 1815.18,465.207 1813.34,465.84 1811.41,466.162 1809.46,466.162 1807.54,465.84 1805.69,465.207 1803.98,464.279 1802.44,463.081 1801.12,461.646 1800.05,460.013 1799.27,458.227 1798.79,456.336 1798.63,454.392 " />
<polyline fill="none" vector-effect="none" points="700.307,454.392 700.475,448.106 700.976,441.839 701.811,435.607 702.976,429.428 704.468,423.32 706.283,417.3 708.417,411.385 710.861,405.592 713.611,399.937 716.658,394.437 719.993,389.107 723.607,383.962 727.49,379.016 731.63,374.284 736.017,369.779 740.637,365.514 745.477,361.501 750.525,357.751 755.764,354.275 761.181,351.083 766.761,348.184 772.487,345.586 778.343,343.296 784.312,341.321 790.378,339.667 796.524,338.338 802.732,337.338 808.984,336.669 815.262,336.335 821.55,336.335 827.829,336.669 834.081,337.338 840.289,338.338 846.434,339.667 852.501,341.321 858.47,343.296 864.326,345.586 870.052,348.184 875.631,351.083 881.048,354.275 886.288,357.751 891.335,361.501 896.176,365.514 900.796,369.779 905.182,374.284 909.323,379.016 913.206,383.962 916.82,389.107 920.155,394.437 923.202,399.937 925.951,405.592 928.396,411.385 930.529,417.3 932.344,423.32 933.837,429.428 935.002,435.607 935.836,441.839 936.338,448.106 936.505,454.392 936.338,460.677 935.836,466.945 935.002,473.177 933.837,479.356 932.344,485.464 930.529,491.484 928.396,497.399 925.951,503.192 923.202,508.847 920.155,514.347 916.82,519.677 913.206,524.822 909.323,529.768 905.182,534.5 900.796,539.005 896.176,543.27 891.335,547.283 886.288,551.033 881.048,554.509 875.631,557.701 870.052,560.6 864.326,563.198 858.47,565.488 852.501,567.463 846.434,569.117 840.289,570.446 834.081,571.446 827.829,572.114 821.55,572.449 815.262,572.449 808.984,572.114 802.732,571.446 796.524,570.446 790.378,569.117 784.312,567.463 778.343,565.488 772.487,563.198 766.761,560.6 761.181,557.701 755.764,554.509 750.525,551.033 745.477,547.283 740.637,543.27 736.017,539.005 731.63,534.5 727.49,529.768 723.607,524.822 719.993,519.677 716.658,514.347 713.611,508.847 710.861,503.192 708.417,497.399 706.283,491.484 704.468,485.464 702.976,479.356 701.811,473.177 700.976,466.945 700.475,460.677 700.307,454.392 " />
<polyline fill="none" vector-effect="none" points="1940.35,454.392 1940.51,448.106 1941.02,441.839 1941.85,435.607 1943.02,429.428 1944.51,423.32 1946.32,417.3 1948.46,411.385 1950.9,405.592 1953.65,399.937 1956.7,394.437 1960.03,389.107 1963.65,383.962 1967.53,379.016 1971.67,374.284 1976.06,369.779 1980.68,365.514 1985.52,361.501 1990.56,357.751 1995.8,354.275 2001.22,351.083 2006.8,348.184 2012.53,345.586 2018.38,343.296 2024.35,341.321 2030.42,339.667 2036.56,338.338 2042.77,337.338 2049.02,336.669 2055.3,336.335 2061.59,336.335 2067.87,336.669 2074.12,337.338 2080.33,338.338 2086.47,339.667 2092.54,341.321 2098.51,343.296 2104.37,345.586 2110.09,348.184 2115.67,351.083 2121.09,354.275 2126.33,357.751 2131.37,361.501 2136.21,365.514 2140.83,369.779 2145.22,374.284 2149.36,379.016 2153.24,383.962 2156.86,389.107 2160.19,394.437 2163.24,399.937 2165.99,405.592 2168.44,411.385 2170.57,417.3 2172.38,423.32 2173.88,429.428 2175.04,435.607 2175.88,441.839 2176.38,448.106 2176.54,454.392 2176.38,460.677 2175.88,466.945 2175.04,473.177 2173.88,479.356 2172.38,485.464 2170.57,491.484 2168.44,497.399 2165.99,503.192 2163.24,508.847 2160.19,514.347 2156.86,519.677 2153.24,524.822 2149.36,529.768 2145.22,534.5 2140.83,539.005 2136.21,543.27 2131.37,547.283 2126.33,551.033 2121.09,554.509 2115.67,557.701 2110.09,560.6 2104.37,563.198 2098.51,565.488 2092.54,567.463 2086.47,569.117 2080.33,570.446 2074.12,571.446 2067.87,572.114 2061.59,572.449 2055.3,572.449 2049.02,572.114 2042.77,571.446 2036.56,570.446 2030.42,569.117 2024.35,567.463 2018.38,565.488 2012.53,563.198 2006.8,560.6 2001.22,557.701 1995.8,554.509 1990.56,551.033 1985.52,547.283 1980.68,543.27 1976.06,539.005 1971.67,534.5 1967.53,529.768 1963.65,524.822 1960.03,519.677 1956.7,514.347 1953.65,508.847 1950.9,503.192 1948.46,497.399 1946.32,491.484 1944.51,485.464 1943.02,479.356 1941.85,473.177 1941.02,466.945 1940.51,460.677 1940.35,454.392 " />
<polyline fill="none" vector-effect="none" points="2211.97,454.392 2212.14,452.448 2212.61,450.557 2213.4,448.771 2214.46,447.138 2215.79,445.703 2217.32,444.505 2219.04,443.577 2220.88,442.943 2222.81,442.622 2224.76,442.622 2226.68,442.943 2228.53,443.577 2230.24,444.505 2231.78,445.703 2233.1,447.138 2234.17,448.771 2234.95,450.557 2235.43,452.448 2235.59,454.392 2235.43,456.336 2234.95,458.227 2234.17,460.013 2233.1,461.646 2231.78,463.081 2230.24,464.279 2228.53,465.207 2226.68,465.84 2224.76,466.162 2222.81,466.162 2220.88,465.84 2219.04,465.207 2217.32,464.279 2215.79,463.081 2214.46,461.646 2213.4,460.013 2212.61,458.227 2212.14,456.336 2211.97,454.392 " />
<polyline fill="none" vector-effect="none" points="227.912,454.392 228.073,452.448 228.551,450.557 229.335,448.771 230.402,447.138 231.723,445.703 233.262,444.505 234.977,443.577 236.822,442.943 238.746,442.622 240.697,442.622 242.621,442.943 244.465,443.577 246.181,444.505 247.72,445.703 249.041,447.138 250.108,448.771 250.891,450.557 251.37,452.448 251.531,454.392 251.37,456.336 250.891,458.227 250.108,460.013 249.041,461.646 247.72,463.081 246.181,464.279 244.465,465.207 242.621,465.84 240.697,466.162 238.746,466.162 236.822,465.84 234.977,465.207 233.262,464.279 231.723,463.081 230.402,461.646 229.335,460.013 228.551,458.227 228.073,456.336 227.912,454.392 " />
<polyline fill="none" vector-effect="none" points="286.961,454.392 287.128,448.106 287.63,441.839 288.465,435.607 289.63,429.428 291.122,423.32 292.937,417.3 295.07,411.385 297.515,405.592 300.265,399.937 303.311,394.437 306.646,389.107 310.261,383.962 314.143,379.016 318.284,374.284 322.67,369.779 327.29,365.514 332.131,361.501 337.178,357.751 342.418,354.275 347.835,351.083 353.414,348.184 359.14,345.586 364.996,343.296 370.966,341.321 377.032,339.667 383.178,338.338 389.385,337.338 395.637,336.669 401.916,336.335 408.204,336.335 414.483,336.669 420.735,337.338 426.942,338.338 433.088,339.667 439.154,341.321 445.124,343.296 450.98,345.586 456.706,348.184 462.285,351.083 467.702,354.275 472.942,357.751 477.989,361.501 482.829,365.514 487.45,369.779 491.836,374.284 495.977,379.016 499.859,383.962 503.473,389.107 506.809,394.437 509.855,399.937 512.605,405.592 515.05,411.385 517.183,417.3 518.998,423.32 520.49,429.428 521.655,435.607 522.49,441.839 522.992,448.106 523.159,454.392 522.992,460.677 522.49,466.945 521.655,473.177 520.49,479.356 518.998,485.464 517.183,491.484 515.05,497.399 512.605,503.192 509.855,508.847 506.809,514.347 503.473,519.677 499.859,524.822 495.977,529.768 491.836,534.5 487.45,539.005 482.829,543.27 477.989,547.283 472.942,551.033 467.702,554.509 462.285,557.701 456.706,560.6 450.98,563.198 445.124,565.488 439.154,567.463 433.088,569.117 426.942,570.446 420.735,571.446 414.483,572.114 408.204,572.449 401.916,572.449 395.637,572.114 389.385,571.446 383.178,570.446 377.032,569.117 370.966,567.463 364.996,565.488 359.14,563.198 353.414,560.6 347.835,557.701 342.418,554.509 337.178,551.033 332.131,547.283 327.29,543.27 322.67,539.005 318.284,534.5 314.143,529.768 310.261,524.822 306.646,519.677 303.311,514.347 300.265,508.847 297.515,503.192 295.07,497.399 292.937,491.484 291.122,485.464 289.63,479.356 288.465,473.177 287.63,466.945 287.128,460.677 286.961,454.392 " />
<polyline fill="none" vector-effect="none" points="558.589,454.392 558.75,452.448 559.229,450.557 560.012,448.771 561.079,447.138 562.4,445.703 563.939,444.505 565.655,443.577 567.499,442.943 569.423,442.622 571.374,442.622 573.298,442.943 575.143,443.577 576.858,444.505 578.397,445.703 579.718,447.138 580.785,448.771 581.569,450.557 582.047,452.448 582.208,454.392 582.047,456.336 581.569,458.227 580.785,460.013 579.718,461.646 578.397,463.081 576.858,464.279 575.143,465.207 573.298,465.84 571.374,466.162 569.423,466.162 567.499,465.84 565.655,465.207 563.939,464.279 562.4,463.081 561.079,461.646 560.012,460.013 559.229,458.227 558.75,456.336 558.589,454.392 " />
<polyline fill="none" vector-effect="none" points="641.258,454.392 641.419,452.448 641.898,450.557 642.681,448.771 643.748,447.138 645.069,445.703 646.608,444.505 648.324,443.577 650.169,442.943 652.093,442.622 654.043,442.622 655.967,442.943 657.812,443.577 659.527,444.505 661.066,445.703 662.387,447.138 663.454,448.771 664.238,450.557 664.717,452.448 664.878,454.392 664.717,456.336 664.238,458.227 663.454,460.013 662.387,461.646 661.066,463.081 659.527,464.279 657.812,465.207 655.967,465.84 654.043,466.162 652.093,466.162 650.169,465.84 648.324,465.207 646.608,464.279 645.069,463.081 643.748,461.646 642.681,460.013 641.898,458.227 641.419,456.336 641.258,454.392 " />
<polyline fill="none" vector-effect="none" points="2324.17,330.388 2324.17,413.057 " />
<polyline fill="none" vector-effect="none" points="971.935,454.392 972.096,452.448 972.575,450.557 973.358,448.771 974.425,447.138 975.746,445.703 977.285,444.505 979.001,443.577 980.846,442.943 982.77,442.622 984.72,442.622 986.644,442.943 988.489,443.577 990.204,444.505 991.743,445.703 993.065,447.138 994.131,448.771 994.915,450.557 995.394,452.448 995.555,454.392 995.394,456.336 994.915,458.227 994.131,460.013 993.065,461.646 991.743,463.081 990.204,464.279 988.489,465.207 986.644,465.84 984.72,466.162 982.77,466.162 980.846,465.84 979.001,465.207 977.285,464.279 975.746,463.081 974.425,461.646 973.358,460.013 972.575,458.227 972.096,456.336 971.935,454.392 " />
<polyline fill="none" vector-effect="none" points="1054.6,454.392 1054.77,452.448 1055.24,450.557 1056.03,448.771 1057.09,447.138 1058.42,445.703 1059.95,444.505 1061.67,443.577 1063.51,442.943 1065.44,442.622 1067.39,442.622 1069.31,442.943 1071.16,443.577 1072.87,444.505 1074.41,445.703 1075.73,447.138 1076.8,448.771 1077.58,450.557 1078.06,452.448 1078.22,454.392 1078.06,456.336 1077.58,458.227 1076.8,460.013 1075.73,461.646 1074.41,463.081 1072.87,464.279 1071.16,465.207 1069.31,465.84 1067.39,466.162 1065.44,466.162 1063.51,465.84 1061.67,465.207 1059.95,464.279 1058.42,463.081 1057.09,461.646 1056.03,460.013 1055.24,458.227 1054.77,456.336 1054.6,454.392 " />
<polyline fill="none" vector-effect="none" points="1113.65,454.392 1113.82,448.106 1114.32,441.839 1115.16,435.607 1116.32,429.428 1117.81,423.32 1119.63,417.3 1121.76,411.385 1124.21,405.592 1126.96,399.937 1130,394.437 1133.34,389.107 1136.95,383.962 1140.84,379.016 1144.98,374.284 1149.36,369.779 1153.98,365.514 1158.82,361.501 1163.87,357.751 1169.11,354.275 1174.53,351.083 1180.11,348.184 1185.83,345.586 1191.69,343.296 1197.66,341.321 1203.72,339.667 1209.87,338.338 1216.08,337.338 1222.33,336.669 1228.61,336.335 1234.9,336.335 1241.18,336.669 1247.43,337.338 1253.64,338.338 1259.78,339.667 1265.85,341.321 1271.82,343.296 1277.67,345.586 1283.4,348.184 1288.98,351.083 1294.39,354.275 1299.63,357.751 1304.68,361.501 1309.52,365.514 1314.14,369.779 1318.53,374.284 1322.67,379.016 1326.55,383.962 1330.17,389.107 1333.5,394.437 1336.55,399.937 1339.3,405.592 1341.74,411.385 1343.88,417.3 1345.69,423.32 1347.18,429.428 1348.35,435.607 1349.18,441.839 1349.68,448.106 1349.85,454.392 1349.68,460.677 1349.18,466.945 1348.35,473.177 1347.18,479.356 1345.69,485.464 1343.88,491.484 1341.74,497.399 1339.3,503.192 1336.55,508.847 1333.5,514.347 1330.17,519.677 1326.55,524.822 1322.67,529.768 1318.53,534.5 1314.14,539.005 1309.52,543.27 1304.68,547.283 1299.63,551.033 1294.39,554.509 1288.98,557.701 1283.4,560.6 1277.67,563.198 1271.82,565.488 1265.85,567.463 1259.78,569.117 1253.64,570.446 1247.43,571.446 1241.18,572.114 1234.9,572.449 1228.61,572.449 1222.33,572.114 1216.08,571.446 1209.87,570.446 1203.72,569.117 1197.66,567.463 1191.69,565.488 1185.83,563.198 1180.11,560.6 1174.53,557.701 1169.11,554.509 1163.87,551.033 1158.82,547.283 1153.98,543.27 1149.36,539.005 1144.98,534.5 1140.84,529.768 1136.95,524.822 1133.34,519.677 1130,514.347 1126.96,508.847 1124.21,503.192 1121.76,497.399 1119.63,491.484 1117.81,485.464 1116.32,479.356 1115.16,473.177 1114.32,466.945 1113.82,460.677 1113.65,454.392 " />
<polyline fill="none" vector-effect="none" points="1385.28,454.392 1385.44,452.448 1385.92,450.557 1386.7,448.771 1387.77,447.138 1389.09,445.703 1390.63,444.505 1392.35,443.577 1394.19,442.943 1396.12,442.622 1398.07,442.622 1399.99,442.943 1401.84,443.577 1403.55,444.505 1405.09,445.703 1406.41,447.138 1407.48,448.771 1408.26,450.557 1408.74,452.448 1408.9,454.392 1408.74,456.336 1408.26,458.227 1407.48,460.013 1406.41,461.646 1405.09,463.081 1403.55,464.279 1401.84,465.207 1399.99,465.84 1398.07,466.162 1396.12,466.162 1394.19,465.84 1392.35,465.207 1390.63,464.279 1389.09,463.081 1387.77,461.646 1386.7,460.013 1385.92,458.227 1385.44,456.336 1385.28,454.392 " />
<polyline fill="none" vector-effect="none" points="1467.95,454.392 1468.11,452.448 1468.59,450.557 1469.37,448.771 1470.44,447.138 1471.76,445.703 1473.3,444.505 1475.02,443.577 1476.86,442.943 1478.79,442.622 1480.74,442.622 1482.66,442.943 1484.5,443.577 1486.22,444.505 1487.76,445.703 1489.08,447.138 1490.15,448.771 1490.93,450.557 1491.41,452.448 1491.57,454.392 1491.41,456.336 1490.93,458.227 1490.15,460.013 1489.08,461.646 1487.76,463.081 1486.22,464.279 1484.5,465.207 1482.66,465.84 1480.74,466.162 1478.79,466.162 1476.86,465.84 1475.02,465.207 1473.3,464.279 1471.76,463.081 1470.44,461.646 1469.37,460.013 1468.59,458.227 1468.11,456.336 1467.95,454.392 " />
<polyline fill="none" vector-effect="none" points="1527,454.392 1527.17,448.106 1527.67,441.839 1528.5,435.607 1529.67,429.428 1531.16,423.32 1532.98,417.3 1535.11,411.385 1537.55,405.592 1540.3,399.937 1543.35,394.437 1546.69,389.107 1550.3,383.962 1554.18,379.016 1558.32,374.284 1562.71,369.779 1567.33,365.514 1572.17,361.501 1577.22,357.751 1582.46,354.275 1587.87,351.083 1593.45,348.184 1599.18,345.586 1605.04,343.296 1611,341.321 1617.07,339.667 1623.22,338.338 1629.42,337.338 1635.68,336.669 1641.96,336.335 1648.24,336.335 1654.52,336.669 1660.77,337.338 1666.98,338.338 1673.13,339.667 1679.19,341.321 1685.16,343.296 1691.02,345.586 1696.74,348.184 1702.32,351.083 1707.74,354.275 1712.98,357.751 1718.03,361.501 1722.87,365.514 1727.49,369.779 1731.88,374.284 1736.02,379.016 1739.9,383.962 1743.51,389.107 1746.85,394.437 1749.89,399.937 1752.64,405.592 1755.09,411.385 1757.22,417.3 1759.04,423.32 1760.53,429.428 1761.69,435.607 1762.53,441.839 1763.03,448.106 1763.2,454.392 1763.03,460.677 1762.53,466.945 1761.69,473.177 1760.53,479.356 1759.04,485.464 1757.22,491.484 1755.09,497.399 1752.64,503.192 1749.89,508.847 1746.85,514.347 1743.51,519.677 1739.9,524.822 1736.02,529.768 1731.88,534.5 1727.49,539.005 1722.87,543.27 1718.03,547.283 1712.98,551.033 1707.74,554.509 1702.32,557.701 1696.74,560.6 1691.02,563.198 1685.16,565.488 1679.19,567.463 1673.13,569.117 1666.98,570.446 1660.77,571.446 1654.52,572.114 1648.24,572.449 1641.96,572.449 1635.68,572.114 1629.42,571.446 1623.22,570.446 1617.07,569.117 1611,567.463 1605.04,565.488 1599.18,563.198 1593.45,560.6 1587.87,557.701 1582.46,554.509 1577.22,551.033 1572.17,547.283 1567.33,543.27 1562.71,539.005 1558.32,534.5 1554.18,529.768 1550.3,524.822 1546.69,519.677 1543.35,514.347 1540.3,508.847 1537.55,503.192 1535.11,497.399 1532.98,491.484 1531.16,485.464 1529.67,479.356 1528.5,473.177 1527.67,466.945 1527.17,460.677 1527,454.392 " />
<polyline fill="none" vector-effect="none" points="162.957,661.065 590.475,661.065 " />
<polyline fill="none" vector-effect="none" points="2324.17,495.727 2324.17,578.396 " />
<polyline fill="none" vector-effect="none" points="139.337,330.388 139.337,413.057 " />
<polyline fill="none" vector-effect="none" points="162.957,495.727 162.957,413.057 " />
<polyline fill="none" vector-effect="none" points="1873.03,661.065 2300.55,661.065 " />
<polyline fill="none" vector-effect="none" points="2324.17,413.057 2300.55,413.057 " />
</g>

<g fill="none" stroke="#000000" stroke-opacity="1" stroke-width="1" stroke-linecap="square" stroke-linejoin="bevel" transform="matrix(1,0,0,1,0,0)"
font-family="Arial" font-size="12" font-weight="400" font-style="normal" 
>
</g>
</g>
</svg>
